<?xml version="1.0" encoding="UTF-8"?>
<svg id="Livello_1" data-name="Livello 1" xmlns="http://www.w3.org/2000/svg" viewBox="0 0 623.68 220.47">
  <defs>
    <style>
      .cls-1 {
        fill: #000;
        stroke-width: 0px;
      }
    </style>
  </defs>
  <path class="cls-1" d="M90.3,123.81c.48-.9.83-1.58,1.21-2.23,1.86-3.18,3.77-6.33,5.59-9.53,1.34-2.35,3.36-3.71,5.95-4.14,4.8-.79,9.61-.77,14.37.29,5.94,1.33,10.61,4.54,13.73,9.76,4.37,7.3,8.58,14.69,12.85,22.05,1.01,1.73,1.95,3.5,3.01,5.19,1.43,2.29,3.78,3.29,6.04,2.69,3.5-.93,5.07-4.73,3.22-7.9-11.78-20.2-23.58-40.39-35.37-60.58-.8-1.37-1.6-2.75-2.44-4.1-1.7-2.74-5.28-2.7-6.91.07-11.74,19.9-23.48,39.79-35.21,59.69-.97,1.65-1.96,3.28-2.94,4.92-1.09,1.82-.83,3.58.27,5.26,1.11,1.69,2.61,2.47,4.73,2.33,5.59-.38,10.71-2.34,15.83-4.35.51-.2,1.07-.28,1.76-.46-.1.47-.09.72-.2.89-2.54,4.04-4.88,8.23-7.69,12.08-3.92,5.38-9.96,7.07-16.55,5.1-11.72-3.5-17.1-17.63-10.88-28.12,6.8-11.46,13.37-23.05,20.11-34.53,6.05-10.31,12.14-20.61,18.36-30.82,2.9-4.77,7.07-8.07,12.76-8.98,7.89-1.26,14.25,1.3,18.51,8.12,4.57,7.33,8.89,14.82,13.26,22.28,8.22,14.01,16.4,28.04,24.59,42.06,2.06,3.53,3.6,7.19,3.71,11.4.22,8.37-5.07,15.78-12.88,18.78-9.35,3.59-19.42.09-24.76-8.83-4.65-7.77-9.07-15.67-13.59-23.51-.43-.75-.87-1.49-1.32-2.23-1.9-3.13-4.73-4.49-8.34-4.49-6.66,0-13.28.31-19.79,1.8-.21.05-.44.03-1,.06Z"/>
  <path class="cls-1" d="M304.9,100.58c-2.64,0-5.02-.17-7.36.04-2.94.26-4.84-.38-6.5-3.28-2.77-4.84-7.69-6.66-13.12-6.73-6.06-.07-11.22,2.06-14.92,7.09-2.01,2.74-3.11,5.85-3.46,9.21-.47,4.54-.2,9.01,1.94,13.16,2.89,5.59,7.49,8.74,13.79,9.4,5.31.56,10.15-.47,14.19-4.15,2.61-2.37,4.12-5.38,4.96-8.77.3-1.23-.51-1.12-1.25-1.12-5.92,0-11.84,0-17.77,0q-2.13,0-2.13-2.16c0-1.87.03-3.73,0-5.6-.02-.91.29-1.27,1.26-1.27,10.02.03,20.04.02,30.07.02.59,0,1.19-.08,1.25.83.46,7.58-.85,14.7-5.55,20.88-4.93,6.49-11.41,10.33-19.59,11.04-12.18,1.05-21.72-3.43-28.13-13.94-3.25-5.32-4.19-11.26-3.75-17.44.65-9.13,4.52-16.5,12.03-21.78,6-4.22,12.75-5.75,20.06-4.98,8.01.84,14.59,4.24,19.53,10.64,1.98,2.57,3.34,5.47,4.44,8.9Z"/>
  <path class="cls-1" d="M361.9,100.24v38.63c-3.32,0-6.53.01-9.75-.03-.22,0-.54-.42-.62-.7-.11-.43-.06-.9-.06-1.36,0-17.75,0-35.51,0-53.26q0-2.15,2.17-2.16c2,0,4.01.06,6.01-.02,1.08-.04,1.74.32,2.33,1.23,8,12.16,16.04,24.31,24.07,36.45.2.3.41.58.88.84v-1.42c0-11.75,0-23.49,0-35.24,0-1.84,0-1.84,1.78-1.84,2.41,0,4.83.04,7.24-.02,1.09-.03,1.52.28,1.52,1.45-.03,18.21-.03,36.42,0,54.63,0,1.1-.28,1.53-1.45,1.49-2.32-.08-4.65-.07-6.97,0-1,.03-1.56-.35-2.09-1.15-8.1-12.32-16.23-24.62-24.35-36.92-.15-.23-.3-.45-.46-.67-.09.02-.18.05-.28.07Z"/>
  <path class="cls-1" d="M520.33,100.58c-2.5,0-5.01-.18-7.49.05-2.76.25-4.41-.5-5.85-3.15-2.48-4.53-6.81-6.62-11.96-6.99-4.5-.32-8.72.42-12.43,3.13-3.9,2.85-6.12,6.78-7.01,11.48-.99,5.27-.67,10.43,1.75,15.3,3.13,6.33,9.77,9.89,16.83,9.44,5.11-.33,9.38-2.04,12.45-6.25.37-.51.83-1.03,1-1.62.57-1.94,1.86-2.31,3.72-2.19,2.59.16,5.19.04,7.79.04h1.49c-1.06,3.52-2.56,6.55-4.69,9.25-4.86,6.18-11.35,9.29-19.09,10.12-6.34.68-12.38-.23-17.93-3.4-8.21-4.69-12.83-11.89-14.1-21.23-.84-6.17-.14-12.16,2.62-17.81,5.53-11.31,17.05-17.35,29.61-15.76,8.84,1.12,15.88,5.03,20.56,12.72,1.23,2.02,2.07,4.28,3.09,6.43-.12.14-.25.29-.37.43Z"/>
  <path class="cls-1" d="M246.87,138.88c-3.6,0-6.96.03-10.33-.05-.36,0-.86-.59-1.02-1.01-1.24-3.27-2.44-6.55-3.57-9.86-.29-.83-.67-1.12-1.55-1.12-6.28.04-12.57.04-18.85,0-.98,0-1.34.38-1.63,1.21-1.14,3.26-2.36,6.48-3.49,9.74-.29.82-.69,1.12-1.57,1.11-3.18-.05-6.36-.02-9.73-.02.11-.51.15-.9.28-1.25,6.63-18.26,13.28-36.51,19.9-54.77.31-.86.79-1.06,1.62-1.05,2.69.04,5.37.06,8.06,0,.99-.02,1.42.33,1.75,1.25,4.66,12.94,9.36,25.87,14.05,38.8,1.84,5.08,3.68,10.16,5.51,15.24.18.5.33,1.02.57,1.78ZM220.96,97.21c-2.47,6.92-4.86,13.6-7.3,20.42h14.61c-2.44-6.82-4.83-13.5-7.31-20.42Z"/>
  <path class="cls-1" d="M559.58,98.11c-1.46,0-2.92.07-4.37-.04-.43-.03-1.11-.52-1.19-.9-.91-4.13-3.69-6.62-7.94-6.9-2.2-.15-4.36.02-6.35,1.13-4.11,2.29-4.61,8.08-.69,10.63,2.01,1.31,4.45,1.98,6.76,2.78,3.26,1.14,6.62,1.98,9.83,3.22,5.72,2.2,9.36,6.24,9.91,12.52.55,6.35-1.77,11.49-6.99,15.22-4.78,3.41-10.22,4.1-15.89,3.51-4.83-.5-9.18-2.19-12.67-5.71-3.11-3.14-4.51-6.96-4.49-11.35,0-.8.25-1.18,1.08-1.17,2.87.01,5.74,0,8.61,0,.75,0,1.1.25,1.2,1.09.62,5.2,3.46,7.82,8.69,7.82,1.92,0,3.93-.23,5.73-.85,2.6-.9,4.03-2.98,4.25-5.8.23-3.01-1.09-5.24-3.77-6.33-3.14-1.28-6.45-2.15-9.67-3.23-2.41-.8-4.9-1.44-7.19-2.5-6.96-3.22-9.26-8.96-8.46-15.83.98-8.47,7.61-13.21,15.28-14.33,5.24-.76,10.37-.39,15.12,2.19,5.4,2.94,8.39,7.49,8.77,13.69.05.87-.19,1.16-1.02,1.14-1.5-.03-3.01,0-4.51,0Z"/>
  <path class="cls-1" d="M344.18,90.57c-5.4,0-10.54,0-15.68,0-1.73,0-3.46.02-5.19,0-.75,0-1.05.28-1.04,1.05.02,4.23.03,8.47,0,12.7,0,1.05.62,1.03,1.34,1.03,5.56,0,11.11.03,16.67-.03,1.28-.01,1.79.3,1.71,1.65-.11,1.95-.12,3.92,0,5.87.09,1.44-.48,1.75-1.81,1.74-5.46-.07-10.93,0-16.39-.05-1.2-.01-1.56.32-1.54,1.53.07,4.05.03,8.1.03,12.15,0,.44.05.89.08,1.48h21.72v9.14c-.43.02-.91.07-1.39.07-9.79,0-19.58-.02-29.37.03-1.28,0-1.59-.39-1.59-1.62.04-18.12.04-36.23,0-54.35,0-1.27.38-1.62,1.62-1.62,9.79.04,19.58.04,29.37,0,1.09,0,1.53.26,1.5,1.44-.08,2.53-.03,5.07-.03,7.78Z"/>
  <path class="cls-1" d="M402.78,90.57c0-2.93-.02-5.69.03-8.45,0-.22.42-.54.7-.62.38-.12.81-.06,1.22-.06,12.03,0,24.06,0,36.08,0,1.98,0,1.98,0,1.99,1.94,0,1.96-.04,3.92.01,5.87.02.99-.3,1.36-1.33,1.34-3.92-.05-7.84.03-11.75-.05-1.31-.03-1.7.34-1.69,1.67.05,14.89.03,29.78.03,44.67q0,2-1.99,2.01c-2.32,0-4.65-.07-6.97.03-1.28.06-1.6-.38-1.59-1.62.04-14.75.03-29.51.02-44.26,0-2.74.44-2.46-2.46-2.47-3.55-.01-7.11,0-10.66,0-.49,0-.98,0-1.63,0Z"/>
  <path class="cls-1" d="M458.36,138.8h-10.16c-.03-.47-.09-.95-.09-1.42,0-18.11,0-36.22-.03-54.32,0-1.24.33-1.68,1.59-1.64,2.46.08,4.92.05,7.37.01,1.01-.02,1.43.24,1.43,1.38-.04,18.29-.03,36.58-.03,54.87,0,.35-.05.7-.09,1.13Z"/>
</svg>